<svg xmlns="http://www.w3.org/2000/svg" id="Layer_2" data-name="Layer 2" viewBox="0 0 251.51 200.26"><defs><style>.cls-1{fill:#494949}</style></defs><g id="Layer_2-2" data-name="Layer 2"><g id="Layer_6" data-name="Layer 6"><path d="M189.4 102.07c-1.63-.1-3.25-.2-4.88-.29l-13.2-.79c-6.54-.39-13.07-.79-19.61-1.18-7.94-.48-15.87-.95-23.81-1.43l-26.21-1.58-26.45-1.59c-8.18-.49-16.37-.98-24.55-1.48-6.95-.42-13.9-.84-20.85-1.25l-14.92-.9c-2.36-.14-4.74-.41-7.11-.43-.1 0-.2-.01-.3-.02v6l5.3-.54 14.34-1.46 21.29-2.16c8.62-.88 17.24-1.75 25.86-2.63l28.45-2.89 28.59-2.91 26.78-2.72 22.53-2.29 16.27-1.65c2.55-.26 5.15-.38 7.68-.78.11-.02.22-.02.33-.03l-2.59-1.49c3.4 7.59 6.8 15.17 10.21 22.76l16.25 36.24c1.23 2.75 2.47 5.51 3.7 8.26l4.71-3.64c-5.14-4.08-10.29-8.16-15.43-12.24-8.2-6.51-16.4-13.01-24.6-19.52l-5.66-4.49c-1.27-1.01-3-1.24-4.24 0-1.04 1.04-1.28 3.23 0 4.24 5.14 4.08 10.29 8.16 15.43 12.24 8.2 6.51 16.4 13.01 24.6 19.52l5.66 4.49c2.7 2.14 6.14-.44 4.71-3.64-3.4-7.59-6.8-15.17-10.21-22.76L211.22 80.8c-1.23-2.75-2.47-5.51-3.7-8.26-.39-.87-1.65-1.58-2.59-1.49l-5.3.54-14.34 1.46L164 75.21c-8.62.88-17.24 1.75-25.86 2.63-9.48.96-18.97 1.93-28.45 2.89L81.1 83.64l-26.78 2.72-22.53 2.29-16.27 1.65c-2.56.26-5.12.51-7.68.78l-.33.03c-1.61.16-3 1.26-3 3s1.38 2.9 3 3 3.25.2 4.88.29l13.2.79c6.54.39 13.07.79 19.61 1.18 7.94.48 15.87.95 23.81 1.43l26.21 1.58 26.45 1.59 24.55 1.48 20.85 1.25 14.92.9c2.36.14 4.74.37 7.11.43.1 0 .2.01.3.02 1.62.1 3-1.45 3-3 0-1.71-1.38-2.9-3-3Z" class="cls-1"/><path d="M7.51 97.13c1.63.1 3.25.2 4.88.29l13.2.79c6.54.39 13.07.79 19.61 1.18 7.94.48 15.87.95 23.81 1.43l26.21 1.58 26.45 1.59c8.18.49 16.37.98 24.55 1.48l20.85 1.25 14.92.9c2.36.14 4.74.4 7.11.43.1 0 .2.01.3.02l-2.59-4.51c-2.62 6.01-5.25 12.01-7.87 18.02-2.81 6.44-5.5 12.95-8.44 19.33-1.95 4.23-4.12 8.36-6.18 12.54l-12.69 25.71-5.29 10.72c-.91 1.85-1.95 3.69-2.76 5.59-.04.09-.09.18-.13.27l4.1-1.08c-1.23-.91-2.46-1.83-3.69-2.74l-10.1-7.52-14.87-11.07c-6.08-4.52-12.16-9.05-18.23-13.57l-19.88-14.79-20.16-15.01c-6.24-4.64-12.47-9.28-18.71-13.93L26.02 104.2l-11.37-8.46c-1.79-1.33-3.55-2.77-5.4-4.02l-.24-.18c-1.3-.97-3.35-.21-4.1 1.08-.89 1.53-.23 3.13 1.08 4.1 1.23.91 2.46 1.83 3.69 2.74l10.1 7.52 14.87 11.07c6.08 4.52 12.16 9.05 18.23 13.57l19.88 14.79 20.16 15.01c6.24 4.64 12.47 9.28 18.71 13.93 5.3 3.94 10.59 7.88 15.89 11.83l11.37 8.46c1.79 1.33 3.55 2.77 5.4 4.02l.24.18c1.24.92 3.45.26 4.1-1.08 2.24-4.55 4.49-9.09 6.73-13.64 4.24-8.59 8.48-17.19 12.73-25.78 2.51-5.08 5.12-10.12 7.53-15.25 2.5-5.32 4.71-10.79 7.07-16.17 3.05-6.98 6.1-13.95 9.14-20.93.06-.13.12-.27.18-.4.92-2.12-.15-4.37-2.59-4.51-1.63-.1-3.25-.2-4.88-.29l-13.2-.79c-6.54-.39-13.07-.79-19.61-1.18-7.94-.48-15.87-.95-23.81-1.43l-26.21-1.58-26.45-1.59c-8.18-.49-16.37-.98-24.55-1.48-6.95-.42-13.9-.84-20.85-1.25l-14.92-.9c-2.36-.14-4.74-.37-7.11-.43-.1 0-.2-.01-.3-.02-1.62-.1-3 1.45-3 3 0 1.71 1.38 2.9 3 3Z" class="cls-1"/><path d="M235.1 138.32c-7.02.13-14.05.26-21.07.4l-33.29.63c-2.56.05-5.12.1-7.68.14l2.59 4.51c4.77-10.92 9.54-21.84 14.31-32.77.68-1.55 1.35-3.1 2.03-4.65l-4.71.61c5.14 4.08 10.29 8.16 15.43 12.24 8.2 6.51 16.4 13.01 24.6 19.52l5.66 4.49c1.27 1.01 3 1.24 4.24 0 1.04-1.04 1.28-3.23 0-4.24-5.14-4.08-10.29-8.16-15.43-12.24-8.2-6.51-16.4-13.01-24.6-19.52l-5.66-4.49c-1.33-1.05-3.86-1.35-4.71.61-4.77 10.92-9.54 21.84-14.31 32.77-.68 1.55-1.35 3.1-2.03 4.65-.86 1.98.1 4.56 2.59 4.51 7.02-.13 14.05-.26 21.07-.4l33.29-.63c2.56-.05 5.12-.1 7.68-.14 3.86-.07 3.87-6.07 0-6ZM245.87 1.52c-4.9 7.99-9.8 15.99-14.7 23.98-7.81 12.75-15.62 25.49-23.43 38.24-1.8 2.93-3.6 5.87-5.39 8.8l2.59-1.49-5.3.54-14.34 1.46-21.29 2.16c-8.62.88-17.24 1.75-25.86 2.63l-28.45 2.89-28.59 2.91-26.78 2.72c-7.51.76-15.02 1.53-22.53 2.29L15.53 90.3c-2.55.26-5.15.4-7.68.78-.11.02-.22.02-.33.03l.8 5.89c2.15-.81 4.3-1.62 6.45-2.44 5.85-2.21 11.7-4.42 17.54-6.63l25.95-9.81 31.66-11.97c11.56-4.37 23.12-8.74 34.67-13.11s23.33-8.82 34.99-13.23c10.84-4.1 21.68-8.2 32.52-12.29l27.57-10.42 19.82-7.49c3.12-1.18 6.25-2.35 9.37-3.54.14-.05.27-.1.41-.15 1.51-.57 2.55-2.02 2.1-3.69-.4-1.45-2.17-2.67-3.69-2.1-2.15.81-4.3 1.62-6.45 2.44-5.85 2.21-11.7 4.42-17.54 6.63l-25.95 9.81-31.66 11.97c-11.56 4.37-23.12 8.74-34.67 13.11L96.42 57.32c-10.84 4.1-21.68 8.2-32.52 12.29-9.19 3.47-18.38 6.95-27.57 10.42l-19.82 7.49c-3.12 1.18-6.25 2.35-9.37 3.54-.14.05-.27.1-.41.15-1.39.53-2.38 1.73-2.15 3.29.2 1.35 1.44 2.75 2.95 2.6 3.48-.35 6.96-.71 10.44-1.06l26.83-2.73 37.17-3.78 40.74-4.14 38.3-3.89c9.8-1 19.59-1.99 29.39-2.99 4.71-.48 9.42-.94 14.12-1.44 1.22-.13 2.27-.42 3.04-1.55.36-.54.68-1.12 1.02-1.67 2.05-3.35 4.11-6.7 6.16-10.05 6.75-11.01 13.5-22.03 20.25-33.04l15.28-24.94.79-1.29c2.02-3.3-3.16-6.32-5.18-3.03Z" class="cls-1"/></g></g></svg>